<?xml version="1.0" encoding="UTF-8" standalone="no"?>
<svg
   height="48"
   width="48"
   version="1.1"
   id="svg4"
   sodipodi:docname="percent.svg"
   inkscape:version="1.2 (dc2aedaf03, 2022-05-15)"
   xmlns:inkscape="http://www.inkscape.org/namespaces/inkscape"
   xmlns:sodipodi="http://sodipodi.sourceforge.net/DTD/sodipodi-0.dtd"
   xmlns="http://www.w3.org/2000/svg"
   xmlns:svg="http://www.w3.org/2000/svg">
  <defs
     id="defs8" />
  <sodipodi:namedview
     id="namedview6"
     pagecolor="#ffffff"
     bordercolor="#666666"
     borderopacity="1.0"
     inkscape:showpageshadow="2"
     inkscape:pageopacity="0.0"
     inkscape:pagecheckerboard="0"
     inkscape:deskcolor="#d1d1d1"
     showgrid="false"
     inkscape:zoom="17.4375"
     inkscape:cx="23.971326"
     inkscape:cy="24.028674"
     inkscape:window-width="1920"
     inkscape:window-height="1017"
     inkscape:window-x="-8"
     inkscape:window-y="-8"
     inkscape:window-maximized="1"
     inkscape:current-layer="svg4" />
  <path
     d="M14.5 21Q11.8 21 9.9 19.1Q8 17.2 8 14.5Q8 11.8 9.9 9.9Q11.8 8 14.5 8Q17.2 8 19.1 9.9Q21 11.8 21 14.5Q21 17.2 19.1 19.1Q17.2 21 14.5 21ZM14.5 18Q15.95 18 16.975 16.975Q18 15.95 18 14.5Q18 13.05 16.975 12.025Q15.95 11 14.5 11Q13.05 11 12.025 12.025Q11 13.05 11 14.5Q11 15.95 12.025 16.975Q13.05 18 14.5 18ZM33.5 40Q30.8 40 28.9 38.1Q27 36.2 27 33.5Q27 30.8 28.9 28.9Q30.8 27 33.5 27Q36.2 27 38.1 28.9Q40 30.8 40 33.5Q40 36.2 38.1 38.1Q36.2 40 33.5 40ZM33.5 37Q34.95 37 35.975 35.975Q37 34.95 37 33.5Q37 32.05 35.975 31.025Q34.95 30 33.5 30Q32.05 30 31.025 31.025Q30 32.05 30 33.5Q30 34.95 31.025 35.975Q32.05 37 33.5 37ZM10.1 40 8 37.9 37.9 8 40 10.1Z"
     id="path2"
     style="fill:#6c757d;fill-opacity:1" />
</svg>
