<?xml version="1.0" encoding="UTF-8" standalone="no"?>
<svg
   height="48"
   width="48"
   version="1.1"
   id="svg4"
   sodipodi:docname="shopping_cart.svg"
   inkscape:version="1.2 (dc2aedaf03, 2022-05-15)"
   xmlns:inkscape="http://www.inkscape.org/namespaces/inkscape"
   xmlns:sodipodi="http://sodipodi.sourceforge.net/DTD/sodipodi-0.dtd"
   xmlns="http://www.w3.org/2000/svg"
   xmlns:svg="http://www.w3.org/2000/svg">
  <defs
     id="defs8" />
  <sodipodi:namedview
     id="namedview6"
     pagecolor="#ffffff"
     bordercolor="#666666"
     borderopacity="1.0"
     inkscape:showpageshadow="2"
     inkscape:pageopacity="0.0"
     inkscape:pagecheckerboard="0"
     inkscape:deskcolor="#d1d1d1"
     showgrid="false"
     inkscape:zoom="8.71875"
     inkscape:cx="10.207885"
     inkscape:cy="15.139785"
     inkscape:window-width="1920"
     inkscape:window-height="1017"
     inkscape:window-x="-8"
     inkscape:window-y="-8"
     inkscape:window-maximized="1"
     inkscape:current-layer="svg4" />
  <path
     d="M14.35 43.95Q12.85 43.95 11.8 42.9Q10.75 41.85 10.75 40.35Q10.75 38.85 11.8 37.8Q12.85 36.75 14.35 36.75Q15.8 36.75 16.875 37.8Q17.95 38.85 17.95 40.35Q17.95 41.85 16.9 42.9Q15.85 43.95 14.35 43.95ZM34.35 43.95Q32.85 43.95 31.8 42.9Q30.75 41.85 30.75 40.35Q30.75 38.85 31.8 37.8Q32.85 36.75 34.35 36.75Q35.8 36.75 36.875 37.8Q37.95 38.85 37.95 40.35Q37.95 41.85 36.9 42.9Q35.85 43.95 34.35 43.95ZM11.75 10.95 17.25 22.35H31.65L37.9 10.95Q37.9 10.95 37.9 10.95Q37.9 10.95 37.9 10.95ZM13.85 33.55Q11.75 33.55 10.825 32.15Q9.9 30.75 10.85 29L14.05 23.1L6.45 7H4Q3.4 7 2.975 6.55Q2.55 6.1 2.55 5.45Q2.55 4.85 2.975 4.425Q3.4 4 4.05 4H7.45Q7.9 4 8.25 4.225Q8.6 4.45 8.8 4.85L10.25 7.95H39.7Q41.3 7.95 41.725 8.925Q42.15 9.9 41.45 11.1L34.7 23.25Q34.2 24.1 33.3 24.725Q32.4 25.35 31.35 25.35H16.2L13.4 30.55Q13.4 30.55 13.4 30.55Q13.4 30.55 13.4 30.55H36.5Q37.1 30.55 37.525 31Q37.95 31.45 37.95 32.05Q37.95 32.7 37.525 33.125Q37.1 33.55 36.45 33.55ZM17.25 22.35H31.65Q31.65 22.35 31.65 22.35Q31.65 22.35 31.65 22.35Z"
     id="path2"
     style="fill:#6c757d;fill-opacity:1" />
</svg>
