<svg width="131" height="53" viewBox="0 0 131 53" fill="none" xmlns="http://www.w3.org/2000/svg">
<path d="M6.516 26L0.936 0.799998H6.3L9.72 17.864L14.616 0.799998H19.548L24.444 17.828L27.864 0.799998H33.048L27.504 26H21.996L17.028 8.432L11.988 26H6.516ZM36.2641 26V0.799998H55.6321V5.336H41.4841V11.096H50.8081V15.488H41.4841V21.464H55.7761V26H36.2641ZM11.268 52.36C9.228 52.36 7.236 51.988 5.292 51.244C3.348 50.476 1.62 49.396 0.108 48.004L3.096 44.26C4.56 45.556 5.964 46.492 7.308 47.068C8.676 47.644 10.116 47.932 11.628 47.932C12.684 47.932 13.596 47.812 14.364 47.572C15.132 47.308 15.72 46.936 16.128 46.456C16.56 45.976 16.776 45.412 16.776 44.764C16.776 43.9 16.464 43.24 15.84 42.784C15.216 42.304 14.148 41.932 12.636 41.668L7.632 40.804C5.496 40.444 3.864 39.688 2.736 38.536C1.632 37.384 1.08 35.896 1.08 34.072C1.08 32.512 1.476 31.156 2.268 30.004C3.084 28.852 4.224 27.976 5.688 27.376C7.176 26.752 8.94 26.44 10.98 26.44C12.828 26.44 14.664 26.752 16.488 27.376C18.336 28 19.968 28.864 21.384 29.968L18.576 33.856C15.936 31.84 13.284 30.832 10.62 30.832C9.684 30.832 8.868 30.952 8.172 31.192C7.476 31.432 6.936 31.768 6.552 32.2C6.192 32.608 6.012 33.1 6.012 33.676C6.012 34.444 6.288 35.044 6.84 35.476C7.392 35.884 8.316 36.196 9.612 36.412L14.364 37.204C16.884 37.612 18.768 38.416 20.016 39.616C21.264 40.792 21.888 42.352 21.888 44.296C21.888 45.928 21.456 47.356 20.592 48.58C19.728 49.78 18.492 50.716 16.884 51.388C15.3 52.036 13.428 52.36 11.268 52.36ZM24.9789 52V26.8H30.1989V36.952H41.7909V26.8H47.0109V52H41.7909V41.668H30.1989V52H24.9789ZM49.1802 52L59.5482 26.8H65.5602L75.8202 52H70.1682L67.6122 45.376H57.2082L54.6162 52H49.1802ZM58.8282 41.2H66.0282L62.4282 31.912L58.8282 41.2ZM77.9594 52V26.8H90.2714C91.9754 26.8 93.4754 27.136 94.7714 27.808C96.0914 28.456 97.1114 29.368 97.8314 30.544C98.5754 31.72 98.9474 33.076 98.9474 34.612C98.9474 36.22 98.5034 37.636 97.6154 38.86C96.7274 40.084 95.5394 40.996 94.0514 41.596L99.6314 52H93.7994L88.8674 42.352H83.1794V52H77.9594ZM83.1794 38.068H89.8034C90.9794 38.068 91.9154 37.756 92.6114 37.132C93.3314 36.508 93.6914 35.692 93.6914 34.684C93.6914 33.676 93.3314 32.86 92.6114 32.236C91.9154 31.612 90.9794 31.3 89.8034 31.3H83.1794V38.068ZM102.393 52V26.8H121.761V31.336H107.613V37.096H116.937V41.488H107.613V47.464H121.905V52H102.393ZM127.828 52.36C127.036 52.36 126.352 52.072 125.776 51.496C125.2 50.92 124.912 50.236 124.912 49.444C124.912 48.628 125.2 47.932 125.776 47.356C126.352 46.78 127.036 46.492 127.828 46.492C128.62 46.492 129.304 46.78 129.88 47.356C130.456 47.932 130.744 48.628 130.744 49.444C130.744 50.236 130.456 50.92 129.88 51.496C129.304 52.072 128.62 52.36 127.828 52.36Z" fill="#212529"/>
</svg>
